<svg preserveAspectRatio="none" overflow="visible" style="display: block;" width="12" height="12" viewBox="0 0 12 12" fill="none" xmlns="http://www.w3.org/2000/svg">
<g id="Bold/circle-x" clip-path="url(#clip0_2041_4837)">
<path id="Subtract" fill-rule="evenodd" clip-rule="evenodd" d="M6 0C5.21207 0 4.43185 0.155195 3.7039 0.456723C2.97595 0.758251 2.31451 1.20021 1.75736 1.75736C1.20021 2.31451 0.758251 2.97595 0.456723 3.7039C0.155195 4.43185 0 5.21207 0 6C0 6.78793 0.155195 7.56815 0.456723 8.2961C0.758251 9.02405 1.20021 9.68549 1.75736 10.2426C2.31451 10.7998 2.97595 11.2417 3.7039 11.5433C4.43185 11.8448 5.21207 12 6 12C6.78793 12 7.56815 11.8448 8.2961 11.5433C9.02405 11.2417 9.68549 10.7998 10.2426 10.2426C10.7998 9.68549 11.2417 9.02405 11.5433 8.2961C11.8448 7.56815 12 6.78793 12 6C12 5.21207 11.8448 4.43185 11.5433 3.7039C11.2417 2.97595 10.7998 2.31451 10.2426 1.75736C9.68549 1.20021 9.02405 0.758251 8.2961 0.456723C7.56815 0.155195 6.78793 0 6 0ZM4.6879 3.7121C4.41844 3.44263 3.98156 3.44263 3.7121 3.7121C3.44263 3.98156 3.44263 4.41844 3.7121 4.6879L5.02419 6L3.7121 7.3121C3.44263 7.58156 3.44263 8.01844 3.7121 8.2879C3.98156 8.55736 4.41844 8.55736 4.6879 8.2879L6 6.97581L7.3121 8.2879C7.58156 8.55736 8.01844 8.55736 8.2879 8.2879C8.55736 8.01844 8.55736 7.58156 8.2879 7.3121L6.97581 6L8.2879 4.6879C8.55736 4.41844 8.55736 3.98156 8.2879 3.7121C8.01844 3.44263 7.58156 3.44263 7.3121 3.7121L6 5.02419L4.6879 3.7121Z" fill="#F87171"/>
<g id="Subtract_2">
</g>
</g>
<defs>
<clipPath id="clip0_2041_4837">
<rect width="12" height="12" fill="white"/>
</clipPath>
</defs>
</svg>
